<svg height="18" viewBox="0 0 18 18" width="18" xmlns="http://www.w3.org/2000/svg" xmlns:xlink="http://www.w3.org/1999/xlink"><linearGradient id="a" gradientUnits="userSpaceOnUse" x1="13.25" x2="8.62" y1="13.02" y2="4.25"><stop offset="0" stop-color="#1988d9"/><stop offset=".9" stop-color="#54aef0"/></linearGradient><linearGradient id="b" gradientUnits="userSpaceOnUse" x1="11.26" x2="14.46" y1="10.47" y2="15.99"><stop offset=".1" stop-color="#54aef0"/><stop offset=".29" stop-color="#4fabee"/><stop offset=".51" stop-color="#41a2e9"/><stop offset=".74" stop-color="#2a93e0"/><stop offset=".88" stop-color="#1988d9"/></linearGradient><path d="m1.01 10.19 7.92 5.14 8.06-5.16 1.01 1.18-9.07 5.84-8.93-5.84z" fill="#50e6ff"/><path d="m1.61 9.53 7.32-8.72 7.47 8.73-7.47 4.72z" fill="#fff"/><path d="m8.93.81v13.45l-7.32-4.73z" fill="#50e6ff"/><path d="m8.93.81v13.45l7.47-4.72z" fill="url(#a)"/><path d="m8.93 7.76 7.47 1.78-7.47 4.72z" fill="#53b1e0"/><path d="m8.93 14.26-7.32-4.73 7.32-1.77z" fill="#9cebff"/><path d="m8.93 17.19 9.07-5.84-1.01-1.18-8.06 5.16z" fill="url(#b)"/></svg>